<?xml version="1.0" encoding="utf-8"?>
<!-- Generator: Adobe Illustrator 21.0.0, SVG Export Plug-In . SVG Version: 6.00 Build 0)  -->
<svg version="1.1" id="Layer_1" xmlns="http://www.w3.org/2000/svg" xmlns:xlink="http://www.w3.org/1999/xlink" x="0px" y="0px"
	 viewBox="0 0 2000 2000" style="enable-background:new 0 0 2000 2000;" xml:space="preserve">
<style type="text/css">
	.st0{fill:#5A1160;}
	.st1{fill:#E85656;}
</style>
<g>
	<g>
		<g>
			<path class="st0" d="M645,669.5c47.7,52.9,71.5,116.2,71.4,190.3c-1.8,85.4-29.7,160.5-83.7,225.5s-119.4,103-196.5,113.7
				l-282.7,73.2c-56.8,8-126.9-31.7-136.5-62.7c-4.8-13.8-7.2-35.6-7.2-65.4l1.3-708.3c0-20.4,0.7-35.4,1.9-44.9
				c1.2-9.5,5.1-21.1,11.6-34.8c11.4-24.6,43-40.5,94.9-47.8l306.3-43.1c74.6-10.5,166.2,19.7,216.4,67.1
				c52.6,47.9,49.5,98.9,49.3,176.3C691.4,564.8,675.9,618.5,645,669.5z M424.5,974.9c51.1-7.2,76.7-39.7,76.8-97.6
				c0-20.4-2.2-36.3-6.6-47.6c-4.4-11.3-11.9-18.8-22.4-22.4c-2.9-0.8-5.2-1-7.1-0.8c-8.8,1.2-10.3,12.9-32.4,26.2
				c-2.9,1.8-6.2,2.8-9.7,3.3c-28.1,4-71.6-29.3-84.5-38.1c-14.6-9.9-21.8-33.3-21.8-70.3c0.1-37,7.6-62.5,22.6-76.6
				c15-14,40-23.5,74.8-28.4c32.4-4.6,51.9-16.2,58.4-35c2.4-9.7,3.7-25.2,3.7-46.5s-6.6-35.2-20-41.9c-13.4-6.6-33.4-8.1-60.2-4.3
				L226,519l-0.9,483.7L424.5,974.9"/>
		</g>
	</g>
</g>
<g>
	<g>
		<g>
			<path class="st0" d="M914.2,188.1c52.8-7.4,140.4,21.4,150.1,51.7c3.7,14.1-50.8,18.7-50.9,48.7l-1.3,715
				c0,20.6-0.6,35.7-1.8,45.3c-1.2,9.6-4.8,21.2-10.8,35c11.6,22.3,59.6,51.8-15.6,76.8c-3.6,1.2-7.4,2.1-11.5,2.6
				c-54.5,7.7-145.5-39-153.9-68.2c-4.5-13.1-6.7-34.6-6.7-64.7l1.3-715c0-19.7,0.6-34.6,1.8-44.6s4.7-21.9,10.8-35.6
				C836.6,210.5,865.9,194.7,914.2,188.1z"/>
		</g>
	</g>
</g>
<g>
	<g>
		<g>
			<path class="st0" d="M1572.8,93.6c96.7-13.6,215.6,12,301.5,66c54.8,25.7,5.4,25.8,5.4,46.6c0,20.8-9.5,46.1-28.4,75.8
				c-32,49.5-46.7,54.9-72.9,58.6c-15.6,2.2-43.8-10.7-78.2-29.2c-16.5-8.9-37-8.9-59.2-5.8c-24.1,3.4-50,10.5-74.8,13.9
				c-62.3,8.8-117.5,39.2-165.9,91.4s-72.7,114.9-72.8,188.2c-0.1,73.4,24.3,132.2,73.4,176.5c49.1,44.4,104.7,62.2,166.9,53.5
				c45.1-6.3,85.6-19.7,121.6-40l0.3-138.6l-60.5,43.1c-25.4,3.6-80-26.7-90.7-32c-10.6-5.3-17.6-14.3-20.8-27
				c-3.3-12.7-4.9-30.3-4.8-52.7c0-22.5,1.9-40.7,5.6-54.8c3.7-14.1,10.5-24.4,20.3-30.8c14.8-9.7,34.4-16.3,59-19.7l216.2-30.4
				c44.2-4.5,135.4,23.9,145.2,44.6c8.1,15-52,17.8-52.1,49.2l-0.5,279.8c-0.1,27.1-11.6,54.6-34.5,82.4
				c-69,83.5-151.8,112-286.4,162.4c-10.4,3.9-21.6,6.6-33.4,8.3c-94.2,13.2-228-41.4-307.9-114.9c-90-82.7-134.7-191.4-134.4-326.3
				c0-134.8,46.1-253.8,137.9-356.9S1448.3,111.1,1572.8,93.6z"/>
		</g>
	</g>
</g>
<g>
	<g>
		<g>
			<path class="st0" d="M1909.9,1197c50.2,44.5,22.9,78.4,22.8,153.6c-0.1,75.3-24.9,143.2-74.1,203.9
				c-49.3,60.7-108.9,96-178.8,105.8l-79.9,51.2c-27.9,3.9-91-33.3-97.8-44.7c-5.5-9.6-8.2-25-8.1-46.2l0.8-411.6
				c0-11.8,0.4-20.5,1.1-26.1c0.7-5.5,2.9-12.2,6.6-20.2c6.4-14.2,24.3-23.4,53.6-27.5l126.8-17.1
				C1749.1,1108.8,1859.7,1152.5,1909.9,1197z M1771.3,1476.9c26.6-30.1,39.9-65.2,40-105.2s-12.8-71.6-38.6-94.9
				c-25.8-23.3-56.1-32.5-90.8-27.6l-65.9,9.3l-0.5,279.8l66.6-9.4C1715,1524.3,1744.7,1507.1,1771.3,1476.9"/>
		</g>
	</g>
</g>
<g>
	<g>
		<g>
			<path class="st0" d="M1220,1180c24.1-3.4,89.9,33.5,92.4,56.8l141,358.2c7.6,15.6,11.3,27.5,11.3,35.9c0,17.6-13,35.4-38.9,53.2
				c-15.2,10.4,8.6,49.7-0.1,50.9c-8.7,1.2-51.5-33.4-57.1-37s-9.6-7.7-12-12.3c-2.5-4.5-5.9-11.4-10.3-20.6l-34.6-74.5l-185.3,26.1
				l-35,84.2c-4.5,10.4-8,18-10.4,22.8c-2.5,4.8-6.5,9.9-12.1,15.3s-12.7,8.8-21.4,10c-7.9,1.1,29.6,31.1,25,31.7
				c-0.5,0.1-1.3-0.2-2.7-0.7c-25.9-10.1-96.8-62.4-96.8-80c0-8.3,3.8-21.3,11.5-39.1L1166,1225c4.9-11.9,12.4-22,22.5-30.3
				C1198.2,1186.5,1208.8,1181.6,1220,1180z"/>
		</g>
	</g>
</g>
<g>
	<g>
		<g>
			<path class="st0" d="M870.1,1236.2c10.5-1.5,18.3-2.2,23.6-2.2c5.2,0,64.8,30.9,71.6,33.8c2.5,1,2.5,1.4,1.1,1.6
				c-1,0.1-2.6,0.2-4.7,0.3c-2.1,0.1-4.6,0.3-7.2,0.7c-10.7,1.5-24.2,6.2-24.3,23c-0.1,34.4-8.5,55.8-25.4,64.1
				c-7.8,4-19.6,7.2-35.6,9.4l-209.8,29.5l-0.1,74.5l135.3-19c10.5-1.5,18.3-2.2,23.6-2.2c5.2,0,63.6,27.6,70.4,30.5
				c10.8,7.4,10.4,9.5,5.1,10.3c-2.2,0.3-5.2,0.4-8.6,0.5c-3.4,0.1-7.2,0.3-10.8,0.8c-10.1,1.4-19.6,5.3-19.6,17.3
				c-0.1,34.4-8.8,55.8-26.1,64.2c-7.8,4-19.6,7.2-35.6,9.4l-133.9,18.8l-0.1,74.5l210.5-29.6c10.5-1.5,18.3-2.2,23.6-2.2
				c5.2,0,53.3,24.1,60.1,27.1c12.3,5.2-23.6,0.9-23.7,32.4c-0.1,34.4-18,57.1-34.9,65.4c-7.8,4-10.1,5.8-26.1,8.1l-225.6,65.2
				c-2.2,3.1-5.6,4.8-9.7,5.3c-26.7,3.7-86.7-37.1-91.4-52.6c-2.7-7.5-4.1-19.8-4-37.1l0.8-410.2c0-25.1,4.4-42.8,13.1-53.1
				c8.7-10.3,25.1-17.2,49.3-20.6L870.1,1236.2z"/>
		</g>
	</g>
</g>
<g>
	<g>
		<g>
			<path class="st0" d="M372.5,1301.2c12.9-1.8,23.1-2,30.6-0.6s50.7,13.8,63.5,20.8c8.6,4.7,19.8,10.7,22,16.8
				c0.7,2.4-4.2,3.7-11.3,4.7c-2.6,0.4-5.5,0.7-8.6,1.1c-3.1,0.4-6.3,0.7-9.4,1.2c-13.4,1.9-26.4,5-26.4,13.1l-0.8,408.2
				c0,11.3-0.4,19.8-1.1,25.5c-0.7,5.7-2.8,12.5-6.4,20.4c-6.2,14.1,29.3,54.6,0.9,58.6c-31.1,4.4-102.2-33.6-107.5-51
				c-2.7-8-4-20.5-3.9-37.7l0.3-149.3l-176.5,24.8l-0.3,150c0,11.3-0.4,19.8-1,25.5c-0.7,5.7-2.8,12.5-6.4,20.4
				c-6.2,14.1,34.5,44.9,5.2,58c-50-2-106.5-33-111.7-50.4c-2.7-8-4-20.5-3.9-37.7l0.8-408.2c0-11.3,0.4-19.8,1-25.5
				c0.7-5.7,2.8-12.5,6.4-20.4c6.2-14.1,23.6-23.2,52-27.2c31.1-4.4,112,17.7,118.8,50.6c2.2,8-29.5,11.8-29.5,29l-31.2,127.7
				l176.5-24.8l0.3-150.8c0-11.3,0.4-19.8,1-25.5c0.7-5.7,2.8-12.5,6.4-20.4c3.6-7.9,9.6-13.9,18-18
				C349,1306,359.6,1303,372.5,1301.2z"/>
		</g>
	</g>
</g>
<g>
	<g>
		<g>
			<path class="st1" d="M715,703.7c47.7,52.9,71.5,116.2,71.4,190.3c-1.8,85.4-29.7,160.4-83.7,225.5c-54,65-119.4,103-196.4,113.7
				l-319.7,44.9c-56.8,8-89.9-3.5-99.6-34.5c-4.8-13.8-7.2-35.6-7.2-65.4L81.2,470c0-20.4,0.7-35.4,1.9-44.9
				c1.2-9.5,5.1-21.1,11.6-34.8c11.4-24.6,43-40.5,94.9-47.8l306.3-43.1c74.6-10.5,136.8,8,187,55.4c52.6,47.9,78.8,110.5,78.7,188
				C761.4,598.9,745.9,652.5,715,703.7z M494.5,1009c51.1-7.2,76.7-39.7,76.8-97.6c0-20.4-2.2-36.3-6.6-47.6
				c-4.4-11.3-11.9-18.7-22.4-22.4c-16.2-4.5-38.9-4.7-68.1-0.6c-29.2,4.1-51.1,1.2-65.6-8.7c-14.6-9.9-21.8-33.3-21.7-70.3
				c0.1-37,7.6-62.5,22.6-76.6c15-14,40-23.5,74.8-28.4c32.4-4.6,51.9-16.2,58.4-35c2.4-9.7,3.7-25.2,3.7-46.5
				c0-21.3-6.6-35.2-20-41.9c-13.4-6.6-33.4-8.1-60.2-4.3l-170.1,23.9l-0.9,483.7L494.5,1009"/>
		</g>
	</g>
</g>
<g>
	<g>
		<g>
			<path class="st1" d="M992,218.1c52.8-7.4,84.1,4.1,93.8,34.4c3.7,14.1,5.6,36.1,5.5,66.1l-1.3,715c0,20.6-0.6,35.7-1.8,45.3
				c-1.1,9.6-4.8,21.2-10.8,35c-10.6,24.6-40.1,40.4-88.3,47.1c-52.8,7.4-83.7-4.5-92.7-35.8c-4.5-13.1-6.7-34.6-6.7-64.7l1.3-715
				c0-19.7,0.6-34.6,1.8-44.6s4.7-21.9,10.8-35.6C914.3,240.6,943.7,224.9,992,218.1z"/>
		</g>
	</g>
</g>
<g>
	<g>
		<g>
			<path class="st1" d="M1650.2,123.9c96.7-13.6,187.9,6.6,273.8,60.7c22.1,13.9,33.1,31.2,33.1,51.9c0,20.8-9.5,46.1-28.4,75.8
				c-32,49.5-61.2,76-87.4,79.7c-15.6,2.2-40.5-6-74.9-24.4c-34.4-18.5-75.3-24.4-122.7-17.7c-62.3,8.8-117.5,39.2-165.9,91.4
				c-48.4,52.2-72.7,114.9-72.8,188.2c-0.1,73.4,24.3,132.2,73.4,176.5c49.1,44.4,104.7,62.2,166.9,53.5
				c45.1-6.3,85.6-19.7,121.6-40l0.3-138.6l-97.1,13.6c-25.4,3.6-43.4,2.7-54.1-2.6c-10.6-5.3-17.6-14.3-20.8-27
				c-3.3-12.7-4.9-30.3-4.8-52.7c0-22.5,1.9-40.7,5.6-54.8c3.7-14.1,10.5-24.4,20.3-30.8c14.8-9.7,34.4-16.3,59-19.7l216.2-30.4
				c44.2-4.5,71.3,3.6,81,24.2c8.1,15,12.2,38.1,12.2,69.5l-0.5,279.8c-0.1,27.1-11.6,54.6-34.5,82.4
				c-69,83.5-172.2,134.8-309.8,154.1c-122,17.2-228-15.6-317.9-98.4c-90-82.7-134.7-191.4-134.4-326.3
				C1188,527,1234,408,1325.9,304.8C1417.6,201.6,1525.7,141.4,1650.2,123.9z"/>
		</g>
	</g>
</g>
<g>
	<g>
		<g>
			<path class="st1" d="M1914.7,1203c50.2,44.5,75.3,104.4,75.1,179.6c-0.1,75.3-24.8,143.2-74.1,203.9
				c-49.3,60.7-108.9,96-178.8,105.8l-125.5,17.6c-27.9,3.9-45.3,0.2-52.1-11.2c-5.5-9.6-8.2-25-8.1-46.2l0.8-411.6
				c0-11.8,0.4-20.5,1.1-26.1c0.7-5.5,2.9-12.2,6.6-20.2c6.4-14.2,24.3-23.4,53.6-27.5L1740,1150
				C1806.2,1140.9,1864.5,1158.5,1914.7,1203z M1828.4,1509c26.6-30.1,39.9-65.2,40-105.2s-12.8-71.6-38.6-94.9
				c-25.8-23.3-56.1-32.5-90.8-27.6l-65.9,9.3l-0.5,279.8l66.6-9.4C1772.1,1556.4,1801.8,1539,1828.4,1509"/>
		</g>
	</g>
</g>
<g>
	<g>
		<g>
			<path class="st1" d="M1501,1629c7.6,15.6,11.3,27.5,11.3,35.9c0,17.6-13,35.4-38.9,53.2c-15.2,10.5-27.1,16.3-35.8,17.5
				c-8.7,1.2-15.8,0-21.4-3.6c-5.6-3.6-9.6-7.7-12-12.3c-2.4-4.5-5.9-11.4-10.3-20.6l-34.6-74.5l-185.3,26.1l-35,84.2
				c-4.5,10.4-8,18-10.4,22.8c-2.5,4.8-6.5,9.9-12.1,15.3s-12.7,8.8-21.4,10c-8.7,1.2-20.6-1.3-35.8-7.5
				c-25.9-10.1-38.8-23.9-38.7-41.6c0-8.3,3.8-21.3,11.5-39.1l181.4-435.9c4.9-11.9,12.4-22,22.5-30.3c10-8.3,20.7-13.2,31.8-14.8
				c24.1-3.4,41.9,6.8,53.5,30.7L1501,1629z M1222.2,1535.3l89-12.5l-44.7-94.3L1222.2,1535.3"/>
		</g>
	</g>
</g>
<g>
	<g>
		<g>
			<path class="st1" d="M926.6,1267.6c10.5-1.5,18.3-2.2,23.6-2.2c5.2,0,11.3,1.5,18.1,4.5c12.3,5.2,18.4,23.5,18.4,55
				c-0.1,34.4-8.5,55.8-25.4,64.1c-7.8,4-19.6,7.2-35.6,9.4l-209.8,29.5l-0.1,74.5l135.3-19c10.5-1.5,18.4-2.2,23.6-2.2
				c5.2,0,11.3,1.5,18.1,4.5c12.3,5.2,18.4,23.5,18.3,55c-0.1,34.4-8.8,55.8-26.1,64.2c-7.8,4-19.6,7.2-35.6,9.4l-133.9,18.8
				l-0.1,74.5l210.5-29.6c10.5-1.5,18.3-2.2,23.6-2.2c5.2,0,11.3,1.5,18.1,4.5c12.3,5.2,18.4,23.5,18.4,55
				c-0.1,34.4-18,57.1-34.9,65.4c-7.8,4-10.1,5.8-26.1,8.1l-270.7,38.1c-31.9,4.5-50.6-2.2-56-20.2c-2.7-7.5-4.1-19.8-4-37.1
				l0.8-410.2c0-25.1,4.4-42.8,13.1-53.1c8.7-10.3,25.1-17.2,49.3-20.6L926.6,1267.6z"/>
		</g>
	</g>
</g>
<g>
	<g>
		<g>
			<path class="st1" d="M438.9,1331.3c12.9-1.8,23.1-2,30.6-0.6c7.5,1.4,13.3,3.5,17.3,6.4c4,2.9,7.1,7.4,9.3,13.4
				c2.2,8,3.3,20.6,3.3,37.8l-0.8,408.2c0,11.3-0.4,19.8-1,25.5s-2.8,12.5-6.4,20.4c-6.2,14.1-23.6,23.2-52,27.2
				c-31.1,4.4-49.3-2.1-54.6-19.5c-2.7-8-4-20.5-3.9-37.7l0.3-149.3l-176.5,24.8l-0.3,150c0,11.3-0.4,19.8-1,25.5
				c-0.7,5.7-2.8,12.5-6.4,20.4c-6.3,14.1-23.6,23.2-52,27.2c-31.1,4.4-49.3-2.1-54.6-19.5c-2.7-8-4-20.5-3.9-37.7l0.8-408.2
				c0-11.3,0.4-19.8,1-25.5c0.7-5.7,2.8-12.5,6.4-20.4c6.2-14.1,23.6-23.2,52-27.2c31.1-4.4,49.5,2.1,55.3,19.5
				c2.2,8,3.3,20.6,3.3,37.8l-0.3,150l176.5-24.8l0.3-150.8c0-11.3,0.4-19.8,1-25.5c0.7-5.7,2.8-12.5,6.4-20.4
				c3.6-7.9,9.6-13.9,18-18C415.4,1336.1,426,1333.1,438.9,1331.3z"/>
		</g>
	</g>
</g>
</svg>
